Coordinates
version=1
nRows=8
nColumns=40
inDegrees=yes

Units are S.I. units (second, meters, Newtons, ...)
Angles are in degrees.

endheader
time	pelvis_tilt	pelvis_list	pelvis_rotation	pelvis_tx	pelvis_ty	pelvis_tz	hip_flexion_r	hip_adduction_r	hip_rotation_r	knee_angle_r	knee_angle_r_beta	ankle_angle_r	subtalar_angle_r	mtp_angle_r	hip_flexion_l	hip_adduction_l	hip_rotation_l	knee_angle_l	knee_angle_l_beta	ankle_angle_l	subtalar_angle_l	mtp_angle_l	lumbar_extension	lumbar_bending	lumbar_rotation	arm_flex_r	arm_add_r	arm_rot_r	elbow_flex_r	pro_sup_r	wrist_flex_r	wrist_dev_r	arm_flex_l	arm_add_l	arm_rot_l	elbow_flex_l	pro_sup_l	wrist_flex_l	wrist_dev_l
      2.32500000	    -15.00245605	      1.52902577	     10.28437300	     -2.44250557	      0.95841495	      0.37997232	     13.80198706	     -0.71372780	    -10.21242387	    102.10236496	    102.10236496	    -21.96512773	      0.00000000	      0.00000000	     39.17490140	      1.63493600	     -6.82004131	     39.95366323	     39.95366323	      9.21670487	      0.00000000	      0.00000000	    -27.74966864	     -6.07037032	     -2.24206515	     -7.59065760	    -11.53869339	    -17.48564873	     88.83642932	     30.08162567	      0.00000000	      0.00000000	     -5.08467272	    -25.03007780	     -3.62969416	     98.20315951	     75.31981358	      0.00000000	      0.00000000
      2.33000000	    -14.97134137	      1.52703017	     11.07340832	     -2.41484435	      0.95584792	      0.37831458	     16.16771333	     -1.46234189	    -10.81926067	    105.10489981	    105.10489981	    -20.71600498	      0.00000000	      0.00000000	     37.63680775	      2.08094819	     -6.07591353	     40.79598638	     40.79598638	     11.89713194	      0.00000000	      0.00000000	    -27.59192043	     -5.56199194	     -3.27902519	     -9.83000723	    -11.28620280	    -17.46114497	     87.47699960	     31.19778492	      0.00000000	      0.00000000	     -1.77347606	    -24.74453848	     -2.09976940	     99.14207400	     71.58791227	      0.00000000	      0.00000000
      2.33500000	    -14.92357481	      1.50355649	     11.85096363	     -2.38728940	      0.95366588	      0.37653367	     18.58349698	     -2.23410115	    -11.30175098	    107.82468385	    107.82468385	    -19.51627676	      0.00000000	      0.00000000	     36.01411239	      2.44495102	     -5.34071350	     41.50816895	     41.50816895	     14.38903819	      0.00000000	      0.00000000	    -27.44641819	     -4.99994429	     -4.42407391	    -12.01217937	    -11.15179205	    -17.29253977	     86.32296346	     32.75132808	      0.00000000	      0.00000000	      1.46583835	    -24.40600914	     -0.71899238	    100.20117181	     66.26195277	      0.00000000	      0.00000000
      2.34000000	    -14.85445447	      1.44444061	     12.62545548	     -2.35977923	      0.95192715	      0.37465904	     21.03493211	     -3.00629155	    -11.68304686	    110.22960324	    110.22960324	    -18.36412344	      0.00000000	      0.00000000	     34.29042427	      2.70629058	     -4.57740571	     42.04282002	     42.04282002	     16.62119421	      0.00000000	      0.00000000	    -27.31738660	     -4.37070737	     -5.69277978	    -14.11537970	    -11.13031104	    -16.93462155	     85.49158914	     32.72912556	      0.00000000	      0.00000000	      4.63997757	    -24.01630956	      0.15639928	    100.99553502	     66.26111493	      0.00000000	      0.00000000
      2.34500000	    -14.75773565	      1.33392438	     13.41170221	     -2.33224716	      0.95065542	      0.37272307	     23.50031803	     -3.75856760	    -12.00063504	    112.29281888	    112.29281888	    -17.25130464	      0.00000000	      0.00000000	     32.45362218	      2.84808411	     -3.74414703	     42.36336805	     42.36336805	     18.54862062	      0.00000000	      0.00000000	    -27.19198792	     -3.66323126	     -7.02707256	    -16.13212247	    -11.18524710	    -16.62426916	     84.46543521	     37.19146343	      0.00000000	      0.00000000	      7.64115019	    -23.68314818	      1.32205841	    102.61732509	     54.00911039	      0.00000000	      0.00000000
      2.35000000	    -14.62942708	      1.15349046	     14.22844689	     -2.30463909	      0.94983083	      0.37075300	     25.95749024	     -4.47482634	    -12.30192414	    113.99731560	    113.99731560	    -16.16297802	      0.00000000	      0.00000000	     30.50671504	      2.85354418	     -2.80221005	     42.45424496	     42.45424496	     20.14463383	      0.00000000	      0.00000000	    -27.07269673	     -2.85363839	     -8.46216684	    -18.05710503	    -11.32374650	    -16.23508163	     83.61551504	     41.16291098	      0.00000000	      0.00000000	     10.56034379	    -23.36247054	      1.90926710	    103.84087750	     49.49431980	      0.00000000	      0.00000000
      2.35500000	    -14.47084820	      0.88427500	     15.09213334	     -2.27692379	      0.94939405	      0.36876432	     28.39043662	     -5.14677079	    -12.63407303	    115.33829630	    115.33829630	    -15.08588043	      0.00000000	      0.00000000	     28.47169441	      2.70476552	     -1.72616758	     42.32369547	     42.32369547	     21.39318572	      0.00000000	      0.00000000	    -26.93724843	     -1.92425485	     -9.96782009	    -19.93788697	    -11.54999518	    -15.67278717	     83.19058857	     41.20012893	      0.00000000	      0.00000000	     13.36843858	    -23.10138296	      2.15725663	    104.82795472	     49.52568537	      0.00000000	      0.00000000
      2.36000000	    -14.29209377	      0.51366167	     16.00616896	     -2.24909281	      0.94925716	      0.36676769	     30.79611590	     -5.77563979	    -13.02664030	    116.32341440	    116.32341440	    -14.00824430	      0.00000000	      0.00000000	     26.38771475	      2.38529894	     -0.51575109	     41.99880215	     41.99880215	     22.28769005	      0.00000000	      0.00000000	    -26.76183681	     -0.86984526	    -11.47568552	    -21.69529481	    -11.78950805	    -15.70934671	     81.90186551	     54.42996499	      0.00000000	      0.00000000	     16.04724300	    -22.93357016	      2.42644476	    106.25690820	     44.23486181	      0.00000000	      0.00000000
